<?xml version="1.0" encoding="UTF-8" standalone="no"?>
<svg
   xmlns:dc="http://purl.org/dc/elements/1.1/"
   xmlns:cc="http://creativecommons.org/ns#"
   xmlns:rdf="http://www.w3.org/1999/02/22-rdf-syntax-ns#"
   xmlns:svg="http://www.w3.org/2000/svg"
   xmlns="http://www.w3.org/2000/svg"
   viewBox="0 0 64 64"
   version="1.1"
   id="svg4828"
   height="64"
   width="64">
  <defs
     id="defs4830" />
  <metadata
     id="metadata4833">
    <rdf:RDF>
      <cc:Work
         rdf:about="">
        <dc:format>image/svg+xml</dc:format>
        <dc:type
           rdf:resource="http://purl.org/dc/dcmitype/StillImage" />
        <dc:title></dc:title>
      </cc:Work>
    </rdf:RDF>
  </metadata>
  <g
     id="layer1">
    <path
       id="path5376"
       d="M 0,53.454545 12.727273,25.818182 26.909091,64.727273"
       style="fill:none;fill-rule:evenodd;stroke:#000000;stroke-width:1px;stroke-linecap:butt;stroke-linejoin:miter;stroke-opacity:1" />
    <path
       id="path5378"
       d="M 19.339227,43.762062 20.501143,40.663619 33.636364,5.6363636 44.662348,36.317361 46.317303,40.612223"
       style="fill:none;fill-rule:evenodd;stroke:#000000;stroke-width:1px;stroke-linecap:butt;stroke-linejoin:miter;stroke-opacity:1" />
    <path
       id="path5376-2"
       d="M 64.462353,52.843257 51.735081,25.206894 37.553262,64.115985"
       style="fill:none;fill-rule:evenodd;stroke:#000000;stroke-width:1px;stroke-linecap:butt;stroke-linejoin:miter;stroke-opacity:1" />
    <path
       id="path5397"
       d="m 39.855109,22.730677 -12.438651,0.09642"
       style="fill:none;fill-rule:evenodd;stroke:#000000;stroke-width:1px;stroke-linecap:butt;stroke-linejoin:miter;stroke-opacity:1" />
    <path
       id="path5401"
       d="m 0.36363636,52.659091 -0.65909091,1.522727 0.0909091,9.795455 L 64.5,64.045455 64.318182,52.181818"
       style="fill:none;fill-rule:evenodd;stroke:#000000;stroke-width:1px;stroke-linecap:butt;stroke-linejoin:miter;stroke-opacity:1" />
    <path
       id="path5431"
       d="M 0.31377088,58.893416 0.22570051,54.346651 1.4237912,51.725924 C 7.6956944,38.006642 12.653045,27.369418 12.719089,27.489065 c 0.04426,0.08019 2.988271,8.129678 6.542238,17.887751 3.553966,9.758074 6.488967,17.81427 6.522223,17.902658 0.04812,0.12789 -2.537211,0.160707 -12.660621,0.160707 l -12.72108775,0 -0.0880704,-4.546765 z"
       style="opacity:1;fill:#00a500;fill-opacity:1;stroke:#000000;stroke-width:1;stroke-linecap:round;stroke-miterlimit:4;stroke-dasharray:none;stroke-opacity:1" />
    <path
       id="path5433"
       d="m 38.475468,63.215192 c 0.04791,-0.123744 3.038146,-8.324575 6.644964,-18.22407 3.606818,-9.899495 6.597291,-18.040183 6.645497,-18.090418 0.04821,-0.05023 2.768358,5.730362 6.044783,12.845769 l 5.957138,12.937107 0.07167,5.3783 0.07167,5.378301 -12.76142,0 c -12.101212,0 -12.756916,-0.01164 -12.674309,-0.224989 z"
       style="opacity:1;fill:#00a500;fill-opacity:1;stroke:#000000;stroke-width:1;stroke-linecap:round;stroke-miterlimit:4;stroke-dasharray:none;stroke-opacity:1" />
    <path
       id="path5435"
       d="m 23.469518,53.637109 -3.568334,-9.803071 3.837869,-10.220907 3.837869,-10.220907 5.91045,-0.03341 5.910449,-0.03341 2.294215,6.397371 c 1.261819,3.518554 2.661083,7.35062 3.109476,8.515703 l 0.815259,2.118333 -4.208091,11.541685 -4.20809,11.541685 -5.081369,0 -5.081369,0 -3.568334,-9.803072 z"
       style="opacity:1;fill:#006500;fill-opacity:1;stroke:#000000;stroke-width:1;stroke-linecap:round;stroke-miterlimit:4;stroke-dasharray:none;stroke-opacity:1" />
  </g>
</svg>
